<mxfile host="app.diagrams.net" agent="Mozilla/5.0 (X11; Linux x86_64) AppleWebKit/537.36 (KHTML, like Gecko) Chrome/138.0.0.0 Safari/537.36" version="28.0.7">
  <diagram name="Page-1" id="CiyTq3ETgP8ZzIfx8EHX">
    <mxGraphModel dx="1531" dy="1326" grid="1" gridSize="10" guides="1" tooltips="1" connect="1" arrows="1" fold="1" page="1" pageScale="1" pageWidth="5000" pageHeight="2000" math="0" shadow="0">
      <root>
        <mxCell id="0" />
        <mxCell id="1" parent="0" />
        <mxCell id="R6alezzPv44hoILy_ozX-1" value="&lt;div style=&quot;background-color: rgb(255, 255, 255); color: rgb(8, 8, 8);&quot;&gt;&lt;pre style=&quot;font-family: &amp;quot;JetBrains Mono&amp;quot;, monospace;&quot;&gt;gslam = GaussianSLAM(config)&lt;/pre&gt;&lt;pre style=&quot;font-family: &amp;quot;JetBrains Mono&amp;quot;, monospace;&quot;&gt;gslam.run()&lt;/pre&gt;&lt;/div&gt;" style="rounded=0;whiteSpace=wrap;html=1;strokeWidth=0;verticalAlign=middle;spacing=0;fontSize=11;" parent="1" vertex="1">
          <mxGeometry x="48" y="310" width="222" height="60" as="geometry" />
        </mxCell>
        <mxCell id="LZiklPRg2S03HuQF4Nz--1" value="&lt;div style=&quot;background-color: rgb(255, 255, 255); color: rgb(8, 8, 8); line-height: 50%;&quot;&gt;&lt;pre style=&quot;font-family: &amp;quot;JetBrains Mono&amp;quot;, monospace; line-height: 50%;&quot;&gt;&lt;font style=&quot;font-size: 13px;&quot;&gt;&lt;span style=&quot;color: rgb(0, 0, 0);&quot;&gt;gaussian_model &lt;/span&gt;= GaussianModel(&lt;span style=&quot;color: rgb(23, 80, 235);&quot;&gt;0&lt;/span&gt;)&lt;span style=&quot;color: rgb(140, 140, 140); font-style: italic;&quot;&gt;#&lt;/span&gt;&lt;span style=&quot;color: rgb(140, 140, 140); font-style: italic; font-family: &amp;quot;DejaVu Sans Mono&amp;quot;, monospace;&quot;&gt;这个&lt;/span&gt;&lt;span style=&quot;color: rgb(140, 140, 140); font-style: italic;&quot;&gt;0&lt;/span&gt;&lt;span style=&quot;color: rgb(140, 140, 140); font-style: italic; font-family: &amp;quot;DejaVu Sans Mono&amp;quot;, monospace;&quot;&gt;就是把参数&lt;/span&gt;&lt;span style=&quot;color: rgb(140, 140, 140); font-style: italic;&quot;&gt;sh_degree&lt;/span&gt;&lt;span style=&quot;color: rgb(140, 140, 140); font-style: italic; font-family: &amp;quot;DejaVu Sans Mono&amp;quot;, monospace;&quot;&gt;设置为&lt;/span&gt;&lt;span style=&quot;color: rgb(140, 140, 140); font-style: italic;&quot;&gt;0&lt;/span&gt;&lt;/font&gt;&lt;/pre&gt;&lt;pre style=&quot;font-family: &amp;quot;JetBrains Mono&amp;quot;, monospace; line-height: 50%;&quot;&gt;&lt;font style=&quot;font-size: 13px;&quot;&gt;gaussian_model&lt;span style=&quot;color: light-dark(rgb(8, 8, 8), rgb(230, 230, 230)); background-color: light-dark(rgb(255, 255, 255), rgb(18, 18, 18)); white-space: normal;&quot;&gt;.training_setup(&lt;/span&gt;&lt;span style=&quot;background-color: light-dark(rgb(255, 255, 255), rgb(18, 18, 18)); white-space: normal; color: rgb(148, 85, 141);&quot;&gt;self&lt;/span&gt;&lt;span style=&quot;color: light-dark(rgb(8, 8, 8), rgb(230, 230, 230)); background-color: light-dark(rgb(255, 255, 255), rgb(18, 18, 18)); white-space: normal;&quot;&gt;.opt) self&lt;/span&gt;&lt;span style=&quot;color: light-dark(rgb(8, 8, 8), rgb(230, 230, 230)); background-color: light-dark(rgb(255, 255, 255), rgb(18, 18, 18)); white-space: normal;&quot;&gt;.submap_id = &lt;/span&gt;&lt;span style=&quot;background-color: light-dark(rgb(255, 255, 255), rgb(18, 18, 18)); white-space: normal; color: rgb(23, 80, 235);&quot;&gt;0&lt;/span&gt;&lt;/font&gt;&lt;/pre&gt;&lt;/div&gt;" style="rounded=0;whiteSpace=wrap;html=1;" vertex="1" parent="1">
          <mxGeometry x="300" y="210" width="640" height="60" as="geometry" />
        </mxCell>
        <mxCell id="LZiklPRg2S03HuQF4Nz--2" value="&lt;div style=&quot;background-color: rgb(255, 255, 255); color: rgb(8, 8, 8); line-height: 40%;&quot;&gt;&lt;pre style=&quot;font-family: &amp;quot;JetBrains Mono&amp;quot;, monospace; line-height: 40%;&quot;&gt;&lt;font style=&quot;font-size: 13px;&quot;&gt;&lt;span style=&quot;color: rgb(0, 51, 179);&quot;&gt;for &lt;/span&gt;&lt;span style=&quot;color: rgb(0, 0, 0);&quot;&gt;frame_id &lt;/span&gt;&lt;span style=&quot;color: rgb(0, 51, 179);&quot;&gt;in &lt;/span&gt;&lt;span style=&quot;color: rgb(0, 0, 128);&quot;&gt;range&lt;/span&gt;(&lt;span style=&quot;color: rgb(0, 0, 128);&quot;&gt;len&lt;/span&gt;(&lt;span style=&quot;color: rgb(148, 85, 141);&quot;&gt;self&lt;/span&gt;.dataset)):&lt;/font&gt;&lt;/pre&gt;&lt;pre style=&quot;font-family: &amp;quot;JetBrains Mono&amp;quot;, monospace; line-height: 40%;&quot;&gt;&lt;font style=&quot;font-size: 13px;&quot;&gt;遍历每个帧&lt;/font&gt;&lt;/pre&gt;&lt;/div&gt;" style="rounded=0;whiteSpace=wrap;html=1;" vertex="1" parent="1">
          <mxGeometry x="300" y="315" width="450" height="50" as="geometry" />
        </mxCell>
        <mxCell id="LZiklPRg2S03HuQF4Nz--9" value="&lt;div style=&quot;line-height: 10%;&quot;&gt;&lt;font style=&quot;line-height: 10%; font-size: 13px;&quot;&gt;对第0帧和第1帧做特殊处理&lt;/font&gt;&lt;div&gt;&lt;div style=&quot;background-color: rgb(255, 255, 255); color: rgb(8, 8, 8);&quot;&gt;&lt;pre style=&quot;font-family: &amp;quot;JetBrains Mono&amp;quot;, monospace;&quot;&gt;&lt;font style=&quot;line-height: 10%; font-size: 13px;&quot;&gt;&lt;span style=&quot;color: rgb(0, 51, 179);&quot;&gt;if &lt;/span&gt;&lt;span style=&quot;color: rgb(0, 0, 0);&quot;&gt;frame_id &lt;/span&gt;&lt;span style=&quot;color: rgb(0, 51, 179);&quot;&gt;in &lt;/span&gt;[&lt;span style=&quot;color: rgb(23, 80, 235);&quot;&gt;0&lt;/span&gt;, &lt;span style=&quot;color: rgb(23, 80, 235);&quot;&gt;1&lt;/span&gt;]:&lt;/font&gt;&lt;/pre&gt;&lt;pre style=&quot;font-family: &amp;quot;JetBrains Mono&amp;quot;, monospace;&quot;&gt;&lt;font style=&quot;line-height: 10%; font-size: 13px;&quot;&gt;&lt;div style=&quot;&quot;&gt;&lt;pre style=&quot;font-family: &amp;quot;JetBrains Mono&amp;quot;, monospace;&quot;&gt;&lt;span style=&quot;color: rgb(0, 0, 0);&quot;&gt;estimated_c2w &lt;/span&gt;= &lt;span style=&quot;color: rgb(148, 85, 141);&quot;&gt;self&lt;/span&gt;.dataset[&lt;span style=&quot;color: rgb(0, 0, 0);&quot;&gt;frame_id&lt;/span&gt;][-&lt;span style=&quot;color: rgb(23, 80, 235);&quot;&gt;1&lt;/span&gt;]&lt;span style=&quot;color: rgb(140, 140, 140); font-style: italic;&quot;&gt;#&lt;/span&gt;&lt;span style=&quot;color: rgb(140, 140, 140); font-style: italic; font-family: &amp;quot;DejaVu Sans Mono&amp;quot;, monospace;&quot;&gt;直接采用已有的位姿&lt;/span&gt;&lt;/pre&gt;&lt;/div&gt;&lt;/font&gt;&lt;/pre&gt;&lt;/div&gt;&lt;/div&gt;&lt;/div&gt;" style="rounded=0;whiteSpace=wrap;html=1;" vertex="1" parent="1">
          <mxGeometry x="470" y="390" width="460" height="70" as="geometry" />
        </mxCell>
        <mxCell id="LZiklPRg2S03HuQF4Nz--10" value="&lt;div style=&quot;background-color: rgb(255, 255, 255); color: rgb(8, 8, 8);&quot;&gt;&lt;pre style=&quot;font-family: &amp;quot;JetBrains Mono&amp;quot;, monospace;&quot;&gt;&lt;font style=&quot;font-size: 13px;&quot;&gt;&lt;span style=&quot;color: rgb(0, 51, 179);&quot;&gt;判断是否应该开启新submap(子地图)&lt;/span&gt;&lt;/font&gt;&lt;/pre&gt;&lt;pre style=&quot;font-family: &amp;quot;JetBrains Mono&amp;quot;, monospace;&quot;&gt;&lt;font style=&quot;font-size: 13px;&quot;&gt;&lt;span style=&quot;color: rgb(0, 51, 179);&quot;&gt;if &lt;/span&gt;&lt;span style=&quot;color: rgb(148, 85, 141);&quot;&gt;self&lt;/span&gt;.should_start_new_submap(&lt;span style=&quot;color: rgb(0, 0, 0);&quot;&gt;frame_id&lt;/span&gt;):&lt;br&gt;    save_dict_to_ckpt(&lt;span style=&quot;color: rgb(148, 85, 141);&quot;&gt;self&lt;/span&gt;.estimated_c2ws[:&lt;span style=&quot;color: rgb(0, 0, 0);&quot;&gt;frame_id &lt;/span&gt;+ &lt;span style=&quot;color: rgb(23, 80, 235);&quot;&gt;1&lt;/span&gt;], &lt;span style=&quot;color: rgb(6, 125, 23);&quot;&gt;&quot;estimated_c2w.ckpt&quot;&lt;/span&gt;, &lt;span style=&quot;color: rgb(102, 0, 153);&quot;&gt;directory&lt;/span&gt;=&lt;span style=&quot;color: rgb(148, 85, 141);&quot;&gt;self&lt;/span&gt;.output_path)&lt;br&gt;    &lt;span style=&quot;color: rgb(0, 0, 0);&quot;&gt;gaussian_model &lt;/span&gt;= &lt;span style=&quot;color: rgb(148, 85, 141);&quot;&gt;self&lt;/span&gt;.start_new_submap(&lt;span style=&quot;color: rgb(0, 0, 0);&quot;&gt;frame_id&lt;/span&gt;, &lt;span style=&quot;color: rgb(0, 0, 0);&quot;&gt;gaussian_model&lt;/span&gt;)&lt;/font&gt;&lt;/pre&gt;&lt;/div&gt;" style="rounded=0;whiteSpace=wrap;html=1;" vertex="1" parent="1">
          <mxGeometry x="300" y="520" width="840" height="80" as="geometry" />
        </mxCell>
        <mxCell id="LZiklPRg2S03HuQF4Nz--11" value="&lt;pre style=&quot;color: rgb(8, 8, 8); font-family: &amp;quot;JetBrains Mono&amp;quot;, monospace;&quot;&gt;&lt;font style=&quot;font-size: 13px;&quot;&gt;&lt;span style=&quot;color: rgb(148, 85, 141);&quot;&gt;self&lt;/span&gt;.should_start_new_submap(&lt;span style=&quot;color: rgb(0, 0, 0);&quot;&gt;frame_id&lt;/span&gt;):&lt;/font&gt;&lt;/pre&gt;" style="rounded=0;whiteSpace=wrap;html=1;" vertex="1" parent="1">
          <mxGeometry x="1160" y="440" width="320" height="50" as="geometry" />
        </mxCell>
        <mxCell id="LZiklPRg2S03HuQF4Nz--12" value="&lt;div style=&quot;background-color: rgb(255, 255, 255); color: rgb(8, 8, 8);&quot;&gt;&lt;pre style=&quot;font-family: &amp;quot;JetBrains Mono&amp;quot;, monospace;&quot;&gt;&lt;div style=&quot;&quot;&gt;&lt;pre style=&quot;font-family: &amp;quot;JetBrains Mono&amp;quot;, monospace;&quot;&gt;&lt;font style=&quot;font-size: 13px;&quot;&gt;&lt;span style=&quot;color: rgb(140, 140, 140); font-style: italic;&quot;&gt;#&lt;/span&gt;&lt;span style=&quot;color: rgb(140, 140, 140); font-style: italic; font-family: &amp;quot;DejaVu Sans Mono&amp;quot;, monospace;&quot;&gt;决定是否开启新的子地图，输入当前处理的帧号&lt;br&gt;&lt;/span&gt;&lt;span style=&quot;color: rgb(0, 51, 179);&quot;&gt;if &lt;/span&gt;&lt;span style=&quot;color: rgb(148, 85, 141);&quot;&gt;self&lt;/span&gt;.submap_using_motion_heuristic:&lt;span style=&quot;color: rgb(140, 140, 140); font-style: italic;&quot;&gt;#heuristic:&lt;/span&gt;&lt;span style=&quot;color: rgb(140, 140, 140); font-style: italic; font-family: &amp;quot;DejaVu Sans Mono&amp;quot;, monospace;&quot;&gt;启发式，是否采用运动阈值作为新建子地图的触发条件，True&lt;br&gt;&lt;/span&gt;&lt;span style=&quot;color: rgb(140, 140, 140); font-style: italic; font-family: &amp;quot;DejaVu Sans Mono&amp;quot;, monospace;&quot;&gt;    &lt;/span&gt;&lt;span style=&quot;color: rgb(0, 51, 179);&quot;&gt;if &lt;/span&gt;exceeds_motion_thresholds(&lt;br&gt;        &lt;span style=&quot;color: rgb(148, 85, 141);&quot;&gt;self&lt;/span&gt;.estimated_c2ws[&lt;span style=&quot;color: rgb(0, 0, 0);&quot;&gt;frame_id&lt;/span&gt;], &lt;span style=&quot;color: rgb(148, 85, 141);&quot;&gt;self&lt;/span&gt;.estimated_c2ws[&lt;span style=&quot;color: rgb(148, 85, 141);&quot;&gt;self&lt;/span&gt;.new_submap_frame_ids[-&lt;span style=&quot;color: rgb(23, 80, 235);&quot;&gt;1&lt;/span&gt;]],&lt;br&gt;            &lt;span style=&quot;color: rgb(102, 0, 153);&quot;&gt;rot_thre&lt;/span&gt;=&lt;span style=&quot;color: rgb(23, 80, 235);&quot;&gt;50&lt;/span&gt;, &lt;span style=&quot;color: rgb(102, 0, 153);&quot;&gt;trans_thre&lt;/span&gt;=&lt;span style=&quot;color: rgb(23, 80, 235);&quot;&gt;0.5&lt;/span&gt;):&lt;br&gt;        &lt;span style=&quot;color: rgb(0, 51, 179);&quot;&gt;return True&lt;/span&gt;&lt;/font&gt;&lt;/pre&gt;&lt;/div&gt;&lt;/pre&gt;&lt;/div&gt;" style="rounded=0;whiteSpace=wrap;html=1;align=left;" vertex="1" parent="1">
          <mxGeometry x="1510" y="267.5" width="750" height="110" as="geometry" />
        </mxCell>
        <mxCell id="LZiklPRg2S03HuQF4Nz--13" value="&lt;div style=&quot;background-color:#ffffff;color:#080808&quot;&gt;&lt;pre style=&quot;font-family:&#39;JetBrains Mono&#39;,monospace;font-size:13.5pt;&quot;&gt;&lt;span style=&quot;color:#00627a;&quot;&gt;exceeds_motion_thresholds:该方法通过比较输入的帧与该子图submap的位姿变换&lt;/span&gt;&lt;/pre&gt;&lt;pre style=&quot;font-family:&#39;JetBrains Mono&#39;,monospace;font-size:13.5pt;&quot;&gt;&lt;span style=&quot;color:#00627a;&quot;&gt;如果位姿大，或者旋转角度大，则True,建议新开submap；否则都没有为False&lt;/span&gt;&lt;/pre&gt;&lt;/div&gt;" style="rounded=0;whiteSpace=wrap;html=1;" vertex="1" parent="1">
          <mxGeometry x="1630" y="402.5" width="810" height="70" as="geometry" />
        </mxCell>
        <mxCell id="LZiklPRg2S03HuQF4Nz--14" value="return False" style="rounded=0;whiteSpace=wrap;html=1;align=left;fontSize=13;" vertex="1" parent="1">
          <mxGeometry x="1510" y="522.5" width="690" height="60" as="geometry" />
        </mxCell>
        <mxCell id="LZiklPRg2S03HuQF4Nz--15" value="如果需要开启一个新的submap子图，那么把到当前帧为止（&lt;code data-start=&quot;677&quot; data-end=&quot;691&quot;&gt;0 ~ frame_id&lt;/code&gt;）的所有&lt;strong data-start=&quot;695&quot; data-end=&quot;707&quot;&gt;相机位姿估计结果&lt;/strong&gt;（&lt;code data-start=&quot;708&quot; data-end=&quot;729&quot;&gt;self.estimated_c2ws&lt;/code&gt;）保存到一个检查点（ckpt）文件里。开启一个新的submap，同时更新高斯建图模型&lt;span style=&quot;font-family: &amp;quot;JetBrains Mono&amp;quot;, monospace; background-color: light-dark(rgb(255, 255, 255), rgb(18, 18, 18)); color: light-dark(rgb(8, 8, 8), rgb(230, 230, 230));&quot;&gt;save_dict_to_ckpt(&lt;/span&gt;&lt;span style=&quot;font-family: &amp;quot;JetBrains Mono&amp;quot;, monospace; background-color: light-dark(rgb(255, 255, 255), rgb(18, 18, 18)); color: rgb(148, 85, 141);&quot;&gt;self&lt;/span&gt;&lt;span style=&quot;font-family: &amp;quot;JetBrains Mono&amp;quot;, monospace; background-color: light-dark(rgb(255, 255, 255), rgb(18, 18, 18)); color: light-dark(rgb(8, 8, 8), rgb(230, 230, 230));&quot;&gt;.estimated_c2ws[:&lt;/span&gt;&lt;span style=&quot;font-family: &amp;quot;JetBrains Mono&amp;quot;, monospace; background-color: light-dark(rgb(255, 255, 255), rgb(18, 18, 18)); color: rgb(0, 0, 0);&quot;&gt;frame_id &lt;/span&gt;&lt;span style=&quot;font-family: &amp;quot;JetBrains Mono&amp;quot;, monospace; background-color: light-dark(rgb(255, 255, 255), rgb(18, 18, 18)); color: light-dark(rgb(8, 8, 8), rgb(230, 230, 230));&quot;&gt;+ &lt;/span&gt;&lt;span style=&quot;font-family: &amp;quot;JetBrains Mono&amp;quot;, monospace; background-color: light-dark(rgb(255, 255, 255), rgb(18, 18, 18)); color: rgb(23, 80, 235);&quot;&gt;1&lt;/span&gt;&lt;span style=&quot;font-family: &amp;quot;JetBrains Mono&amp;quot;, monospace; background-color: light-dark(rgb(255, 255, 255), rgb(18, 18, 18)); color: light-dark(rgb(8, 8, 8), rgb(230, 230, 230));&quot;&gt;], &lt;/span&gt;&lt;span style=&quot;font-family: &amp;quot;JetBrains Mono&amp;quot;, monospace; background-color: light-dark(rgb(255, 255, 255), rgb(18, 18, 18)); color: rgb(6, 125, 23);&quot;&gt;&quot;estimated_c2w.ckpt&quot;&lt;/span&gt;&lt;span style=&quot;font-family: &amp;quot;JetBrains Mono&amp;quot;, monospace; background-color: light-dark(rgb(255, 255, 255), rgb(18, 18, 18)); color: light-dark(rgb(8, 8, 8), rgb(230, 230, 230));&quot;&gt;, &lt;/span&gt;&lt;span style=&quot;font-family: &amp;quot;JetBrains Mono&amp;quot;, monospace; background-color: light-dark(rgb(255, 255, 255), rgb(18, 18, 18)); color: rgb(102, 0, 153);&quot;&gt;directory&lt;/span&gt;&lt;span style=&quot;font-family: &amp;quot;JetBrains Mono&amp;quot;, monospace; background-color: light-dark(rgb(255, 255, 255), rgb(18, 18, 18)); color: light-dark(rgb(8, 8, 8), rgb(230, 230, 230));&quot;&gt;=&lt;/span&gt;&lt;span style=&quot;font-family: &amp;quot;JetBrains Mono&amp;quot;, monospace; background-color: light-dark(rgb(255, 255, 255), rgb(18, 18, 18)); color: rgb(148, 85, 141);&quot;&gt;self&lt;/span&gt;&lt;span style=&quot;font-family: &amp;quot;JetBrains Mono&amp;quot;, monospace; background-color: light-dark(rgb(255, 255, 255), rgb(18, 18, 18)); color: light-dark(rgb(8, 8, 8), rgb(230, 230, 230));&quot;&gt;.output_path)&lt;/span&gt;&lt;div&gt;&lt;div style=&quot;background-color: rgb(255, 255, 255); color: rgb(8, 8, 8);&quot;&gt;&lt;pre style=&quot;font-family: &amp;quot;JetBrains Mono&amp;quot;, monospace;&quot;&gt;&lt;span style=&quot;color: rgb(0, 0, 0);&quot;&gt;gaussian_model &lt;/span&gt;= &lt;span style=&quot;color: rgb(148, 85, 141);&quot;&gt;self&lt;/span&gt;.start_new_submap(&lt;span style=&quot;color: rgb(0, 0, 0);&quot;&gt;frame_id&lt;/span&gt;, &lt;span style=&quot;color: rgb(0, 0, 0);&quot;&gt;gaussian_model&lt;/span&gt;)&lt;/pre&gt;&lt;/div&gt;&lt;/div&gt;" style="rounded=0;whiteSpace=wrap;html=1;fontSize=13;align=left;" vertex="1" parent="1">
          <mxGeometry x="1200" y="600" width="1060" height="80" as="geometry" />
        </mxCell>
        <mxCell id="LZiklPRg2S03HuQF4Nz--16" value="&lt;div style=&quot;background-color: rgb(255, 255, 255); color: rgb(8, 8, 8);&quot;&gt;&lt;pre style=&quot;font-family: &amp;quot;JetBrains Mono&amp;quot;, monospace;&quot;&gt;&lt;span style=&quot;color: rgb(0, 51, 179);&quot;&gt;初始化一个新的submap,保存当前submap的checkpoint（包含了当前高斯模型的所有信息，关键帧）,重置高斯模型（也就是重置新的高斯）&lt;/span&gt;&lt;/pre&gt;&lt;pre style=&quot;font-family: &amp;quot;JetBrains Mono&amp;quot;, monospace;&quot;&gt;&lt;span style=&quot;color: rgb(0, 51, 179);&quot;&gt;def &lt;/span&gt;&lt;span style=&quot;color: rgb(0, 98, 122);&quot;&gt;start_new_submap&lt;/span&gt;(&lt;span style=&quot;color: rgb(148, 85, 141);&quot;&gt;self&lt;/span&gt;, &lt;span style=&quot;color: rgb(0, 0, 0);&quot;&gt;frame_id&lt;/span&gt;: &lt;span style=&quot;color: rgb(0, 0, 128);&quot;&gt;int&lt;/span&gt;, &lt;span style=&quot;color: rgb(0, 0, 0);&quot;&gt;gaussian_model&lt;/span&gt;: &lt;span style=&quot;color: rgb(0, 0, 0);&quot;&gt;GaussianModel&lt;/span&gt;) -&amp;gt; &lt;span style=&quot;color: rgb(0, 51, 179);&quot;&gt;None&lt;/span&gt;:&lt;br&gt;&lt;/pre&gt;&lt;/div&gt;" style="rounded=0;whiteSpace=wrap;html=1;fontSize=13;" vertex="1" parent="1">
          <mxGeometry x="2360" y="600" width="830" height="80" as="geometry" />
        </mxCell>
        <mxCell id="LZiklPRg2S03HuQF4Nz--17" value="&lt;div style=&quot;background-color:#ffffff;color:#080808&quot;&gt;&lt;pre style=&quot;font-family:&#39;JetBrains Mono&#39;,monospace;font-size:13.5pt;&quot;&gt;&lt;span style=&quot;color:#0033b3;&quot;&gt;if &lt;/span&gt;&lt;span style=&quot;color:#000000;&quot;&gt;frame_id &lt;/span&gt;&lt;span style=&quot;color:#0033b3;&quot;&gt;in &lt;/span&gt;&lt;span style=&quot;color:#94558d;&quot;&gt;self&lt;/span&gt;.mapping_frame_ids:如果帧号在这个映射帧中（对这个所有帧号每5帧取一帧出来）&lt;/pre&gt;&lt;/div&gt;" style="rounded=0;whiteSpace=wrap;html=1;" vertex="1" parent="1">
          <mxGeometry x="290" y="750" width="940" height="60" as="geometry" />
        </mxCell>
        <mxCell id="LZiklPRg2S03HuQF4Nz--18" value="&lt;div style=&quot;background-color: rgb(255, 255, 255); color: rgb(8, 8, 8);&quot;&gt;&lt;pre style=&quot;font-family:&#39;JetBrains Mono&#39;,monospace;font-size:13.5pt;&quot;&gt;&lt;span style=&quot;color: rgb(0, 0, 0); line-height: 0%;&quot;&gt;&lt;li style=&quot;font-family: Helvetica; font-size: 12px; white-space: normal; background-color: rgb(236, 236, 236);&quot; data-end=&quot;840&quot; data-start=&quot;778&quot;&gt;&lt;p data-end=&quot;840&quot; data-start=&quot;780&quot;&gt;该函数执行论文3.2节描述的mapping过程：&lt;strong data-end=&quot;839&quot; data-start=&quot;804&quot;&gt;初始化高斯点 -&amp;gt; 添加进submap -&amp;gt; 优化submap&lt;/strong&gt;。&lt;/p&gt;&lt;/li&gt;&lt;li style=&quot;font-family: Helvetica; font-size: 12px; white-space: normal; background-color: rgb(236, 236, 236);&quot; data-end=&quot;885&quot; data-start=&quot;841&quot;&gt;&lt;p data-end=&quot;885&quot; data-start=&quot;843&quot;&gt;参数分别是当前帧ID、当前估计的位姿矩阵、当前高斯模型、是否为新submap的标志。&lt;/p&gt;&lt;/li&gt;&lt;/span&gt;&lt;/pre&gt;&lt;pre style=&quot;font-family:&#39;JetBrains Mono&#39;,monospace;font-size:13.5pt;&quot;&gt;&lt;span style=&quot;color: rgb(0, 0, 0);&quot;&gt;opt_dict &lt;/span&gt;= &lt;span style=&quot;color: rgb(148, 85, 141);&quot;&gt;self&lt;/span&gt;.mapper.map(&lt;span style=&quot;color: rgb(0, 0, 0);&quot;&gt;frame_id&lt;/span&gt;, &lt;span style=&quot;color: rgb(0, 0, 0);&quot;&gt;estimate_c2w&lt;/span&gt;, &lt;span style=&quot;color: rgb(0, 0, 0);&quot;&gt;gaussian_model&lt;/span&gt;, &lt;span style=&quot;color: rgb(0, 0, 0);&quot;&gt;new_submap&lt;/span&gt;)&lt;br&gt;&lt;/pre&gt;&lt;/div&gt;" style="rounded=0;whiteSpace=wrap;html=1;" vertex="1" parent="1">
          <mxGeometry x="360" y="840" width="1270" height="110" as="geometry" />
        </mxCell>
        <mxCell id="LZiklPRg2S03HuQF4Nz--19" value="&lt;div style=&quot;background-color: rgb(255, 255, 255); color: rgb(8, 8, 8);&quot;&gt;&lt;pre style=&quot;font-family: &amp;quot;JetBrains Mono&amp;quot;, monospace;&quot;&gt;&lt;div style=&quot;text-align: left;&quot;&gt;&lt;span style=&quot;font-size: 13px; white-space: normal;&quot;&gt;把当前这一帧的所有信息打包，比如RGB，深度图，渲染包&lt;/span&gt;&lt;/div&gt;&lt;div style=&quot;color: light-dark(rgb(8, 8, 8), rgb(230, 230, 230)); text-align: left;&quot;&gt;&lt;font style=&quot;font-size: 13px;&quot;&gt;&lt;span style=&quot;white-space: normal; color: rgb(0, 0, 0);&quot;&gt;keyframe &lt;/span&gt;&lt;span style=&quot;white-space: normal;&quot;&gt;= {&lt;/span&gt;&lt;/font&gt;&lt;/div&gt;&lt;div style=&quot;color: light-dark(rgb(8, 8, 8), rgb(230, 230, 230)); text-align: left;&quot;&gt;&lt;font style=&quot;font-size: 13px;&quot;&gt;&lt;span style=&quot;white-space: normal;&quot;&gt;    &lt;/span&gt;&lt;span style=&quot;white-space: normal; color: rgb(6, 125, 23);&quot;&gt;&quot;color&quot;&lt;/span&gt;&lt;span style=&quot;white-space: normal;&quot;&gt;: &lt;/span&gt;&lt;span style=&quot;white-space: normal; color: rgb(0, 0, 0);&quot;&gt;color_transform&lt;/span&gt;&lt;span style=&quot;white-space: normal;&quot;&gt;(&lt;/span&gt;&lt;span style=&quot;white-space: normal; color: rgb(0, 0, 0);&quot;&gt;gt_color&lt;/span&gt;&lt;span style=&quot;white-space: normal;&quot;&gt;).cuda(),&lt;/span&gt;&lt;/font&gt;&lt;/div&gt;&lt;div style=&quot;color: light-dark(rgb(8, 8, 8), rgb(230, 230, 230)); text-align: left;&quot;&gt;&lt;font style=&quot;font-size: 13px;&quot;&gt;&lt;span style=&quot;white-space: normal;&quot;&gt;    &lt;/span&gt;&lt;span style=&quot;white-space: normal; color: rgb(6, 125, 23);&quot;&gt;&quot;depth&quot;&lt;/span&gt;&lt;span style=&quot;white-space: normal;&quot;&gt;: np2torch(&lt;/span&gt;&lt;span style=&quot;white-space: normal; color: rgb(0, 0, 0);&quot;&gt;gt_depth&lt;/span&gt;&lt;span style=&quot;white-space: normal;&quot;&gt;, &lt;/span&gt;&lt;span style=&quot;white-space: normal; color: rgb(102, 0, 153);&quot;&gt;device&lt;/span&gt;&lt;span style=&quot;white-space: normal;&quot;&gt;=&lt;/span&gt;&lt;span style=&quot;white-space: normal; color: rgb(6, 125, 23);&quot;&gt;&quot;cuda&quot;&lt;/span&gt;&lt;span style=&quot;white-space: normal;&quot;&gt;),&lt;/span&gt;&lt;/font&gt;&lt;/div&gt;&lt;div style=&quot;color: light-dark(rgb(8, 8, 8), rgb(230, 230, 230)); text-align: left;&quot;&gt;&lt;font style=&quot;font-size: 13px;&quot;&gt;&lt;span style=&quot;white-space: normal;&quot;&gt;    &lt;/span&gt;&lt;span style=&quot;white-space: normal; color: rgb(6, 125, 23);&quot;&gt;&quot;render_settings&quot;&lt;/span&gt;&lt;span style=&quot;white-space: normal;&quot;&gt;: get_render_settings(&lt;/span&gt;&lt;/font&gt;&lt;/div&gt;&lt;div style=&quot;color: light-dark(rgb(8, 8, 8), rgb(230, 230, 230)); text-align: left;&quot;&gt;&lt;font style=&quot;font-size: 13px;&quot;&gt;&lt;span style=&quot;white-space: normal;&quot;&gt;        &lt;/span&gt;&lt;span style=&quot;white-space: normal; color: rgb(148, 85, 141);&quot;&gt;self&lt;/span&gt;&lt;span style=&quot;white-space: normal;&quot;&gt;.dataset.width, &lt;/span&gt;&lt;span style=&quot;white-space: normal; color: rgb(148, 85, 141);&quot;&gt;self&lt;/span&gt;&lt;span style=&quot;white-space: normal;&quot;&gt;.dataset.height, &lt;/span&gt;&lt;span style=&quot;white-space: normal; color: rgb(148, 85, 141);&quot;&gt;self&lt;/span&gt;&lt;span style=&quot;white-space: normal;&quot;&gt;.dataset.intrinsics, &lt;/span&gt;&lt;span style=&quot;white-space: normal; color: rgb(0, 0, 0);&quot;&gt;estimate_w2c&lt;/span&gt;&lt;span style=&quot;white-space: normal;&quot;&gt;)}&lt;/span&gt;&lt;/font&gt;&lt;/div&gt;&lt;/pre&gt;&lt;/div&gt;" style="rounded=0;whiteSpace=wrap;html=1;" vertex="1" parent="1">
          <mxGeometry x="1670" y="835" width="670" height="120" as="geometry" />
        </mxCell>
        <mxCell id="LZiklPRg2S03HuQF4Nz--20" value="&lt;div style=&quot;background-color:#ffffff;color:#080808&quot;&gt;&lt;pre style=&quot;font-family:&#39;JetBrains Mono&#39;,monospace;font-size:13.5pt;&quot;&gt;&lt;span style=&quot;color:#8c8c8c;font-style:italic;&quot;&gt;#&lt;/span&gt;&lt;span style=&quot;color:#8c8c8c;font-style:italic;font-family:&#39;DejaVu Sans Mono&#39;,monospace;&quot;&gt;构建一个配置对象，这个对象里装着当前这一帧相机和渲染所需要的所有参数，比如投影矩阵，相机位置，背景颜色，球谐阶数等&lt;br&gt;&lt;/span&gt;&lt;span style=&quot;color:#8c8c8c;font-style:italic;&quot;&gt;#&lt;/span&gt;&lt;span style=&quot;color:#8c8c8c;font-style:italic;font-family:&#39;DejaVu Sans Mono&#39;,monospace;&quot;&gt;有了这个对象，就可以直接用这些参数来把点云渲染成&lt;/span&gt;&lt;span style=&quot;color:#8c8c8c;font-style:italic;&quot;&gt;2D&lt;/span&gt;&lt;span style=&quot;color:#8c8c8c;font-style:italic;font-family:&#39;DejaVu Sans Mono&#39;,monospace;&quot;&gt;图像&lt;br&gt;&lt;/span&gt;&lt;span style=&quot;color:#8c8c8c;font-style:italic;&quot;&gt;#&lt;/span&gt;&lt;span style=&quot;color:#8c8c8c;font-style:italic;font-family:&#39;DejaVu Sans Mono&#39;,monospace;&quot;&gt;这个打包只针对这一帧的操作&lt;br&gt;&lt;/span&gt;&lt;span style=&quot;color:#0033b3;&quot;&gt;def &lt;/span&gt;&lt;span style=&quot;color:#00627a;&quot;&gt;get_render_settings&lt;/span&gt;(&lt;span style=&quot;color:#000000;&quot;&gt;w&lt;/span&gt;, &lt;span style=&quot;color:#000000;&quot;&gt;h&lt;/span&gt;, &lt;span style=&quot;color:#000000;&quot;&gt;intrinsics&lt;/span&gt;, &lt;span style=&quot;color:#000000;&quot;&gt;w2c&lt;/span&gt;, &lt;span style=&quot;color:#000000;&quot;&gt;near&lt;/span&gt;=&lt;span style=&quot;color:#1750eb;&quot;&gt;0.01&lt;/span&gt;, &lt;span style=&quot;color:#000000;&quot;&gt;far&lt;/span&gt;=&lt;span style=&quot;color:#1750eb;&quot;&gt;100&lt;/span&gt;, &lt;span style=&quot;color:#000000;&quot;&gt;sh_degree&lt;/span&gt;=&lt;span style=&quot;color:#1750eb;&quot;&gt;0&lt;/span&gt;):&lt;br&gt;&lt;/pre&gt;&lt;pre style=&quot;font-family:&#39;JetBrains Mono&#39;,monospace;font-size:13.5pt;&quot;&gt;&lt;div&gt;&lt;pre style=&quot;font-family:&#39;JetBrains Mono&#39;,monospace;font-size:13.5pt;&quot;&gt;&lt;span style=&quot;color:#0033b3;&quot;&gt;return &lt;/span&gt;GaussianRasterizationSettings(&lt;br&gt;    &lt;span style=&quot;color:#660099;&quot;&gt;image_height&lt;/span&gt;=&lt;span style=&quot;color:#000000;&quot;&gt;h&lt;/span&gt;,&lt;br&gt;    &lt;span style=&quot;color:#660099;&quot;&gt;image_width&lt;/span&gt;=&lt;span style=&quot;color:#000000;&quot;&gt;w&lt;/span&gt;,&lt;br&gt;    &lt;span style=&quot;color:#660099;&quot;&gt;tanfovx&lt;/span&gt;=&lt;span style=&quot;color:#000000;&quot;&gt;w &lt;/span&gt;/ (&lt;span style=&quot;color:#1750eb;&quot;&gt;2 &lt;/span&gt;* &lt;span style=&quot;color:#000000;&quot;&gt;fx&lt;/span&gt;),&lt;br&gt;    &lt;span style=&quot;color:#660099;&quot;&gt;tanfovy&lt;/span&gt;=&lt;span style=&quot;color:#000000;&quot;&gt;h &lt;/span&gt;/ (&lt;span style=&quot;color:#1750eb;&quot;&gt;2 &lt;/span&gt;* &lt;span style=&quot;color:#000000;&quot;&gt;fy&lt;/span&gt;),&lt;br&gt;    &lt;span style=&quot;color:#660099;&quot;&gt;bg&lt;/span&gt;=torch.tensor([&lt;span style=&quot;color:#1750eb;&quot;&gt;0&lt;/span&gt;, &lt;span style=&quot;color:#1750eb;&quot;&gt;0&lt;/span&gt;, &lt;span style=&quot;color:#1750eb;&quot;&gt;0&lt;/span&gt;], &lt;span style=&quot;color:#660099;&quot;&gt;device&lt;/span&gt;=&lt;span style=&quot;color:#067d17;&quot;&gt;&#39;cuda&#39;&lt;/span&gt;).float(),&lt;br&gt;    &lt;span style=&quot;color:#660099;&quot;&gt;scale_modifier&lt;/span&gt;=&lt;span style=&quot;color:#1750eb;&quot;&gt;1.0&lt;/span&gt;,&lt;br&gt;    &lt;span style=&quot;color:#660099;&quot;&gt;viewmatrix&lt;/span&gt;=&lt;span style=&quot;color:#000000;&quot;&gt;viewmatrix&lt;/span&gt;,&lt;br&gt;    &lt;span style=&quot;color:#660099;&quot;&gt;projmatrix&lt;/span&gt;=&lt;span style=&quot;color:#000000;&quot;&gt;full_proj_matrix&lt;/span&gt;,&lt;br&gt;    &lt;span style=&quot;color:#660099;&quot;&gt;sh_degree&lt;/span&gt;=&lt;span style=&quot;color:#000000;&quot;&gt;sh_degree&lt;/span&gt;,&lt;br&gt;    &lt;span style=&quot;color:#660099;&quot;&gt;campos&lt;/span&gt;=&lt;span style=&quot;color:#000000;&quot;&gt;cam_center&lt;/span&gt;,&lt;br&gt;    &lt;span style=&quot;color:#660099;&quot;&gt;prefiltered&lt;/span&gt;=&lt;span style=&quot;color:#0033b3;&quot;&gt;False&lt;/span&gt;,&lt;br&gt;    &lt;span style=&quot;color:#660099;&quot;&gt;debug&lt;/span&gt;=&lt;span style=&quot;color:#0033b3;&quot;&gt;False&lt;/span&gt;)&lt;/pre&gt;&lt;/div&gt;&lt;/pre&gt;&lt;/div&gt;" style="rounded=0;whiteSpace=wrap;html=1;" vertex="1" parent="1">
          <mxGeometry x="2380" y="730" width="1170" height="395" as="geometry" />
        </mxCell>
        <mxCell id="LZiklPRg2S03HuQF4Nz--21" value="&lt;div style=&quot;background-color:#ffffff;color:#080808&quot;&gt;&lt;pre style=&quot;font-family:&#39;JetBrains Mono&#39;,monospace;font-size:13.5pt;&quot;&gt;通过alpha掩码或颜色梯度，计算出一个二值（True/False）掩码，用来标记关键帧中哪些地方应该‘播种’新的高斯点。&lt;span style=&quot;color:#000000;&quot;&gt;&lt;/span&gt;&lt;/pre&gt;&lt;pre style=&quot;font-family:&#39;JetBrains Mono&#39;,monospace;font-size:13.5pt;&quot;&gt;&lt;span style=&quot;color:#000000;&quot;&gt;seeding_mask &lt;/span&gt;= &lt;span style=&quot;color:#94558d;&quot;&gt;self&lt;/span&gt;.compute_seeding_mask(&lt;span style=&quot;color:#000000;&quot;&gt;gaussian_model&lt;/span&gt;, &lt;span style=&quot;color:#000000;&quot;&gt;keyframe&lt;/span&gt;, &lt;span style=&quot;color:#000000;&quot;&gt;is_new_submap&lt;/span&gt;)&lt;br&gt;&lt;/pre&gt;&lt;/div&gt;" style="rounded=0;whiteSpace=wrap;html=1;" vertex="1" parent="1">
          <mxGeometry x="1670" y="1190" width="1040" height="80" as="geometry" />
        </mxCell>
        <mxCell id="LZiklPRg2S03HuQF4Nz--22" value="&lt;div style=&quot;background-color:#ffffff;color:#080808&quot;&gt;&lt;pre style=&quot;font-family:&#39;JetBrains Mono&#39;,monospace;font-size:13.5pt;&quot;&gt;&lt;span style=&quot;color:#0033b3;&quot;&gt;if &lt;/span&gt;&lt;span style=&quot;color:#000000;&quot;&gt;new_submap&lt;/span&gt;:&lt;br&gt;    &lt;span style=&quot;color:#000000;&quot;&gt;color_for_mask &lt;/span&gt;= (torch2np(&lt;span style=&quot;color:#000000;&quot;&gt;keyframe&lt;/span&gt;[&lt;span style=&quot;color:#067d17;&quot;&gt;&quot;color&quot;&lt;/span&gt;].permute(&lt;span style=&quot;color:#1750eb;&quot;&gt;1&lt;/span&gt;, &lt;span style=&quot;color:#1750eb;&quot;&gt;2&lt;/span&gt;, &lt;span style=&quot;color:#1750eb;&quot;&gt;0&lt;/span&gt;)) * &lt;span style=&quot;color:#1750eb;&quot;&gt;255&lt;/span&gt;).astype(np.uint8)&lt;br&gt;    &lt;span style=&quot;color:#000000;&quot;&gt;seeding_mask &lt;/span&gt;= geometric_edge_mask(&lt;span style=&quot;color:#000000;&quot;&gt;color_for_mask&lt;/span&gt;, &lt;span style=&quot;color:#660099;&quot;&gt;RGB&lt;/span&gt;=&lt;span style=&quot;color:#0033b3;&quot;&gt;True&lt;/span&gt;)&lt;/pre&gt;&lt;/div&gt;" style="rounded=0;whiteSpace=wrap;html=1;align=left;" vertex="1" parent="1">
          <mxGeometry x="2790" y="1180" width="1220" height="90" as="geometry" />
        </mxCell>
      </root>
    </mxGraphModel>
  </diagram>
</mxfile>
